<svg xmlns="http://www.w3.org/2000/svg" xmlns:xlink="http://www.w3.org/1999/xlink" id="export-1783344690513" width="784.828125" class="flowchart" style="max-width: 744.828125px;" viewBox="0 0 784.828125 905" role="graphics-document document" aria-roledescription="flowchart-v2" height="905"><style>#export-1783344690513{font-family:sans-serif;font-size:16px;fill:#0f172a;}@keyframes edge-animation-frame{from{stroke-dashoffset:0;}}@keyframes dash{to{stroke-dashoffset:0;}}#export-1783344690513 .edge-animation-slow{stroke-dasharray:9,5!important;stroke-dashoffset:900;animation:dash 50s linear infinite;stroke-linecap:round;}#export-1783344690513 .edge-animation-fast{stroke-dasharray:9,5!important;stroke-dashoffset:900;animation:dash 20s linear infinite;stroke-linecap:round;}#export-1783344690513 .error-icon{fill:#d1fae5;}#export-1783344690513 .error-text{fill:#064e3b;stroke:#064e3b;}#export-1783344690513 .edge-thickness-normal{stroke-width:1px;}#export-1783344690513 .edge-thickness-thick{stroke-width:3.5px;}#export-1783344690513 .edge-pattern-solid{stroke-dasharray:0;}#export-1783344690513 .edge-thickness-invisible{stroke-width:0;fill:none;}#export-1783344690513 .edge-pattern-dashed{stroke-dasharray:3;}#export-1783344690513 .edge-pattern-dotted{stroke-dasharray:2;}#export-1783344690513 .marker{fill:#475569;stroke:#475569;}#export-1783344690513 .marker.cross{stroke:#475569;}#export-1783344690513 svg{font-family:sans-serif;font-size:16px;}#export-1783344690513 p{margin:0;}#export-1783344690513 .label{font-family:sans-serif;color:#0f172a;}#export-1783344690513 .cluster-label text{fill:#064e3b;}#export-1783344690513 .cluster-label span{color:#064e3b;}#export-1783344690513 .cluster-label span p{background-color:transparent;}#export-1783344690513 .label text,#export-1783344690513 span{fill:#0f172a;color:#0f172a;}#export-1783344690513 .node rect,#export-1783344690513 .node circle,#export-1783344690513 .node ellipse,#export-1783344690513 .node polygon,#export-1783344690513 .node path{fill:#f8fafc;stroke:#cbd5e1;stroke-width:1px;}#export-1783344690513 .rough-node .label text,#export-1783344690513 .node .label text,#export-1783344690513 .image-shape .label,#export-1783344690513 .icon-shape .label{text-anchor:middle;}#export-1783344690513 .node .katex path{fill:#000;stroke:#000;stroke-width:1px;}#export-1783344690513 .rough-node .label,#export-1783344690513 .node .label,#export-1783344690513 .image-shape .label,#export-1783344690513 .icon-shape .label{text-align:center;}#export-1783344690513 .node.clickable{cursor:pointer;}#export-1783344690513 .root .anchor path{fill:#475569!important;stroke-width:0;stroke:#475569;}#export-1783344690513 .arrowheadPath{fill:#000000;}#export-1783344690513 .edgePath .path{stroke:#475569;stroke-width:2.0px;}#export-1783344690513 .flowchart-link{stroke:#475569;fill:none;}#export-1783344690513 .edgeLabel{background-color:#ffffff;text-align:center;}#export-1783344690513 .edgeLabel p{background-color:#ffffff;}#export-1783344690513 .edgeLabel rect{opacity:0.5;background-color:#ffffff;fill:#ffffff;}#export-1783344690513 .labelBkg{background-color:rgba(255, 255, 255, 0.5);}#export-1783344690513 .cluster rect{fill:#f1f5f9;stroke:#94a3b8;stroke-width:1px;}#export-1783344690513 .cluster text{fill:#064e3b;}#export-1783344690513 .cluster span{color:#064e3b;}#export-1783344690513 div.mermaidTooltip{position:absolute;text-align:center;max-width:200px;padding:2px;font-family:sans-serif;font-size:12px;background:#d1fae5;border:1px solid #059669;border-radius:2px;pointer-events:none;z-index:100;}#export-1783344690513 .flowchartTitleText{text-anchor:middle;font-size:18px;fill:#0f172a;}#export-1783344690513 rect.text{fill:none;stroke-width:0;}#export-1783344690513 .icon-shape,#export-1783344690513 .image-shape{background-color:#ffffff;text-align:center;}#export-1783344690513 .icon-shape p,#export-1783344690513 .image-shape p{background-color:#ffffff;padding:2px;}#export-1783344690513 .icon-shape rect,#export-1783344690513 .image-shape rect{opacity:0.5;background-color:#ffffff;fill:#ffffff;}#export-1783344690513 .label-icon{display:inline-block;height:1em;overflow:visible;vertical-align:-0.125em;}#export-1783344690513 .node .label-icon path{fill:currentColor;stroke:revert;stroke-width:revert;}#export-1783344690513 :root{--mermaid-font-family:"trebuchet ms",verdana,arial,sans-serif;}</style><g><marker id="export-1783344690513_flowchart-v2-pointEnd" class="marker flowchart-v2" viewBox="0 0 10 10" refX="5" refY="5" markerUnits="userSpaceOnUse" markerWidth="8" markerHeight="8" orient="auto"><path d="M 0 0 L 10 5 L 0 10 z" class="arrowMarkerPath" style="stroke-width: 1; stroke-dasharray: 1, 0;"/></marker><marker id="export-1783344690513_flowchart-v2-pointStart" class="marker flowchart-v2" viewBox="0 0 10 10" refX="4.5" refY="5" markerUnits="userSpaceOnUse" markerWidth="8" markerHeight="8" orient="auto"><path d="M 0 5 L 10 10 L 10 0 z" class="arrowMarkerPath" style="stroke-width: 1; stroke-dasharray: 1, 0;"/></marker><marker id="export-1783344690513_flowchart-v2-circleEnd" class="marker flowchart-v2" viewBox="0 0 10 10" refX="11" refY="5" markerUnits="userSpaceOnUse" markerWidth="11" markerHeight="11" orient="auto"><circle cx="5" cy="5" r="5" class="arrowMarkerPath" style="stroke-width: 1; stroke-dasharray: 1, 0;"/></marker><marker id="export-1783344690513_flowchart-v2-circleStart" class="marker flowchart-v2" viewBox="0 0 10 10" refX="-1" refY="5" markerUnits="userSpaceOnUse" markerWidth="11" markerHeight="11" orient="auto"><circle cx="5" cy="5" r="5" class="arrowMarkerPath" style="stroke-width: 1; stroke-dasharray: 1, 0;"/></marker><marker id="export-1783344690513_flowchart-v2-crossEnd" class="marker cross flowchart-v2" viewBox="0 0 11 11" refX="12" refY="5.2" markerUnits="userSpaceOnUse" markerWidth="11" markerHeight="11" orient="auto"><path d="M 1,1 l 9,9 M 10,1 l -9,9" class="arrowMarkerPath" style="stroke-width: 2; stroke-dasharray: 1, 0;"/></marker><marker id="export-1783344690513_flowchart-v2-crossStart" class="marker cross flowchart-v2" viewBox="0 0 11 11" refX="-1" refY="5.2" markerUnits="userSpaceOnUse" markerWidth="11" markerHeight="11" orient="auto"><path d="M 1,1 l 9,9 M 10,1 l -9,9" class="arrowMarkerPath" style="stroke-width: 2; stroke-dasharray: 1, 0;"/></marker><g class="root"><g class="clusters"><g class="cluster " id="Apps" data-look="classic"><rect style="" x="8" y="305" width="720.828125" height="208"/><g class="cluster-label " transform="translate(350.1796875, 305)"><g><rect class="background" style="stroke: none"/><text y="-10.1" style=""><tspan class="text-outer-tspan" x="0" y="-0.1em" dy="1.1em"><tspan font-style="normal" class="text-inner-tspan" font-weight="normal">Apps</tspan></tspan></text></g></g></g></g><g class="edgePaths"><path d="M368.914,47.5L368.831,51.583C368.747,55.667,368.581,63.833,368.497,71.417C368.414,79,368.414,86,368.414,89.5L368.414,93" id="L_Internet_HTTPS_0" class=" edge-thickness-normal edge-pattern-solid edge-thickness-normal edge-pattern-solid flowchart-link" style=";" data-edge="true" data-et="edge" data-id="L_Internet_HTTPS_0" data-points="W3sieCI6MzY4LjkxNDA2MjUsInkiOjQ3LjQ5OTk5OTk5OTk5OTk1fSx7IngiOjM2OC40MTQwNjI1LCJ5Ijo3Mn0seyJ4IjozNjguNDE0MDYyNSwieSI6OTd9XQ==" marker-end="url(#export-1783344690513_flowchart-v2-pointEnd)"/><path d="M368.414,151L368.414,155.167C368.414,159.333,368.414,167.667,368.414,175.333C368.414,183,368.414,190,368.414,193.5L368.414,197" id="L_HTTPS_NPM_0" class=" edge-thickness-normal edge-pattern-solid edge-thickness-normal edge-pattern-solid flowchart-link" style=";" data-edge="true" data-et="edge" data-id="L_HTTPS_NPM_0" data-points="W3sieCI6MzY4LjQxNDA2MjUsInkiOjE1MX0seyJ4IjozNjguNDE0MDYyNSwieSI6MTc2fSx7IngiOjM2OC40MTQwNjI1LCJ5IjoyMDF9XQ==" marker-end="url(#export-1783344690513_flowchart-v2-pointEnd)"/><path d="M134.805,384L134.805,388.167C134.805,392.333,134.805,400.667,134.805,408.333C134.805,416,134.805,423,134.805,426.5L134.805,430" id="L_Portfolio_PortfolioCompose_0" class=" edge-thickness-normal edge-pattern-solid edge-thickness-normal edge-pattern-solid flowchart-link" style=";" data-edge="true" data-et="edge" data-id="L_Portfolio_PortfolioCompose_0" data-points="W3sieCI6MTM0LjgwNDY4NzUsInkiOjM4NH0seyJ4IjoxMzQuODA0Njg3NSwieSI6NDA5fSx7IngiOjEzNC44MDQ2ODc1LCJ5Ijo0MzR9XQ==" marker-end="url(#export-1783344690513_flowchart-v2-pointEnd)"/><path d="M368.414,384L368.414,388.167C368.414,392.333,368.414,400.667,368.414,408.333C368.414,416,368.414,423,368.414,426.5L368.414,430" id="L_BookTracker_TrackerCompose_0" class=" edge-thickness-normal edge-pattern-solid edge-thickness-normal edge-pattern-solid flowchart-link" style=";" data-edge="true" data-et="edge" data-id="L_BookTracker_TrackerCompose_0" data-points="W3sieCI6MzY4LjQxNDA2MjUsInkiOjM4NH0seyJ4IjozNjguNDE0MDYyNSwieSI6NDA5fSx7IngiOjM2OC40MTQwNjI1LCJ5Ijo0MzR9XQ==" marker-end="url(#export-1783344690513_flowchart-v2-pointEnd)"/><path d="M602.023,384L602.023,388.167C602.023,392.333,602.023,400.667,602.023,408.333C602.023,416,602.023,423,602.023,426.5L602.023,430" id="L_OtherApps_OtherCompose_0" class=" edge-thickness-normal edge-pattern-solid edge-thickness-normal edge-pattern-solid flowchart-link" style=";" data-edge="true" data-et="edge" data-id="L_OtherApps_OtherCompose_0" data-points="W3sieCI6NjAyLjAyMzQzNzUsInkiOjM4NH0seyJ4Ijo2MDIuMDIzNDM3NSwieSI6NDA5fSx7IngiOjYwMi4wMjM0Mzc1LCJ5Ijo0MzR9XQ==" marker-end="url(#export-1783344690513_flowchart-v2-pointEnd)"/><path d="M261.492,251.8L240.378,256.5C219.263,261.2,177.034,270.6,155.919,279.467C134.805,288.333,134.805,296.667,134.805,304.333C134.805,312,134.805,319,134.805,322.5L134.805,326" id="L_NPM_Portfolio_0" class=" edge-thickness-normal edge-pattern-solid edge-thickness-normal edge-pattern-solid flowchart-link" style=";" data-edge="true" data-et="edge" data-id="L_NPM_Portfolio_0" data-points="W3sieCI6MjYxLjQ5MjE4NzUsInkiOjI1MS44MDAxNDcxNDczNDh9LHsieCI6MTM0LjgwNDY4NzUsInkiOjI4MH0seyJ4IjoxMzQuODA0Njg3NSwieSI6MzA1fSx7IngiOjEzNC44MDQ2ODc1LCJ5IjozMzB9XQ==" marker-end="url(#export-1783344690513_flowchart-v2-pointEnd)"/><path d="M368.414,255L368.414,259.167C368.414,263.333,368.414,271.667,368.414,280C368.414,288.333,368.414,296.667,368.414,304.333C368.414,312,368.414,319,368.414,322.5L368.414,326" id="L_NPM_BookTracker_0" class=" edge-thickness-normal edge-pattern-solid edge-thickness-normal edge-pattern-solid flowchart-link" style=";" data-edge="true" data-et="edge" data-id="L_NPM_BookTracker_0" data-points="W3sieCI6MzY4LjQxNDA2MjUsInkiOjI1NX0seyJ4IjozNjguNDE0MDYyNSwieSI6MjgwfSx7IngiOjM2OC40MTQwNjI1LCJ5IjozMDV9LHsieCI6MzY4LjQxNDA2MjUsInkiOjMzMH1d" marker-end="url(#export-1783344690513_flowchart-v2-pointEnd)"/><path d="M475.336,251.8L496.451,256.5C517.565,261.2,559.794,270.6,580.909,279.467C602.023,288.333,602.023,296.667,602.023,304.333C602.023,312,602.023,319,602.023,322.5L602.023,326" id="L_NPM_OtherApps_0" class=" edge-thickness-normal edge-pattern-solid edge-thickness-normal edge-pattern-solid flowchart-link" style=";" data-edge="true" data-et="edge" data-id="L_NPM_OtherApps_0" data-points="W3sieCI6NDc1LjMzNTkzNzUsInkiOjI1MS44MDAxNDcxNDczNDh9LHsieCI6NjAyLjAyMzQzNzUsInkiOjI4MH0seyJ4Ijo2MDIuMDIzNDM3NSwieSI6MzA1fSx7IngiOjYwMi4wMjM0Mzc1LCJ5IjozMzB9XQ==" marker-end="url(#export-1783344690513_flowchart-v2-pointEnd)"/><path d="M134.805,488L134.805,492.167C134.805,496.333,134.805,504.667,134.805,513C134.805,521.333,134.805,529.667,154.683,539.279C174.56,548.892,214.316,559.783,234.194,565.229L254.072,570.675" id="L_PortfolioCompose_Users_0" class=" edge-thickness-normal edge-pattern-solid edge-thickness-normal edge-pattern-solid flowchart-link" style=";" data-edge="true" data-et="edge" data-id="L_PortfolioCompose_Users_0" data-points="W3sieCI6MTM0LjgwNDY4NzUsInkiOjQ4OH0seyJ4IjoxMzQuODA0Njg3NSwieSI6NTEzfSx7IngiOjEzNC44MDQ2ODc1LCJ5Ijo1Mzh9LHsieCI6MjU3LjkyOTY4NzUsInkiOjU3MS43MzE1MjI5NzUwNTE4fV0=" marker-end="url(#export-1783344690513_flowchart-v2-pointEnd)"/><path d="M368.414,488L368.414,492.167C368.414,496.333,368.414,504.667,368.414,513C368.414,521.333,368.414,529.667,368.414,537.333C368.414,545,368.414,552,368.414,555.5L368.414,559" id="L_TrackerCompose_Users_0" class=" edge-thickness-normal edge-pattern-solid edge-thickness-normal edge-pattern-solid flowchart-link" style=";" data-edge="true" data-et="edge" data-id="L_TrackerCompose_Users_0" data-points="W3sieCI6MzY4LjQxNDA2MjUsInkiOjQ4OH0seyJ4IjozNjguNDE0MDYyNSwieSI6NTEzfSx7IngiOjM2OC40MTQwNjI1LCJ5Ijo1Mzh9LHsieCI6MzY4LjQxNDA2MjUsInkiOjU2M31d" marker-end="url(#export-1783344690513_flowchart-v2-pointEnd)"/><path d="M602.023,488L602.023,492.167C602.023,496.333,602.023,504.667,602.023,513C602.023,521.333,602.023,529.667,582.146,539.279C562.268,548.892,522.512,559.783,502.634,565.229L482.756,570.675" id="L_OtherCompose_Users_0" class=" edge-thickness-normal edge-pattern-solid edge-thickness-normal edge-pattern-solid flowchart-link" style=";" data-edge="true" data-et="edge" data-id="L_OtherCompose_Users_0" data-points="W3sieCI6NjAyLjAyMzQzNzUsInkiOjQ4OH0seyJ4Ijo2MDIuMDIzNDM3NSwieSI6NTEzfSx7IngiOjYwMi4wMjM0Mzc1LCJ5Ijo1Mzh9LHsieCI6NDc4Ljg5ODQzNzUsInkiOjU3MS43MzE1MjI5NzUwNTE4fV0=" marker-end="url(#export-1783344690513_flowchart-v2-pointEnd)"/><path d="M368.414,641L368.414,645.167C368.414,649.333,368.414,657.667,368.414,665.333C368.414,673,368.414,680,368.414,683.5L368.414,687" id="L_Users_Ubuntu_0" class=" edge-thickness-normal edge-pattern-solid edge-thickness-normal edge-pattern-solid flowchart-link" style=";" data-edge="true" data-et="edge" data-id="L_Users_Ubuntu_0" data-points="W3sieCI6MzY4LjQxNDA2MjUsInkiOjY0MX0seyJ4IjozNjguNDE0MDYyNSwieSI6NjY2fSx7IngiOjM2OC40MTQwNjI1LCJ5Ijo2OTF9XQ==" marker-end="url(#export-1783344690513_flowchart-v2-pointEnd)"/><path d="M368.414,745L368.414,749.167C368.414,753.333,368.414,761.667,368.414,769.333C368.414,777,368.414,784,368.414,787.5L368.414,791" id="L_Ubuntu_DO_0" class=" edge-thickness-normal edge-pattern-solid edge-thickness-normal edge-pattern-solid flowchart-link" style=";" data-edge="true" data-et="edge" data-id="L_Ubuntu_DO_0" data-points="W3sieCI6MzY4LjQxNDA2MjUsInkiOjc0NX0seyJ4IjozNjguNDE0MDYyNSwieSI6NzcwfSx7IngiOjM2OC40MTQwNjI1LCJ5Ijo3OTV9XQ==" marker-end="url(#export-1783344690513_flowchart-v2-pointEnd)"/></g><g class="edgeLabels"><g><rect class="background" style="stroke: none"/></g><g><rect class="background" style="stroke: none"/></g><g><rect class="background" style="stroke: none"/></g><g><rect class="background" style="stroke: none"/></g><g><rect class="background" style="stroke: none"/></g><g><rect class="background" style="stroke: none"/></g><g><rect class="background" style="stroke: none"/></g><g><rect class="background" style="stroke: none"/></g><g><rect class="background" style="stroke: none"/></g><g><rect class="background" style="stroke: none"/></g><g><rect class="background" style="stroke: none"/></g><g><rect class="background" style="stroke: none"/></g><g><rect class="background" style="stroke: none"/></g><g class="edgeLabel"><g class="label" data-id="L_Internet_HTTPS_0" transform="translate(0, 0)"><text y="-10.1"><tspan class="text-outer-tspan" x="0" y="-0.1em" dy="1.1em"/></text></g></g><g class="edgeLabel"><g class="label" data-id="L_HTTPS_NPM_0" transform="translate(0, 0)"><text y="-10.1"><tspan class="text-outer-tspan" x="0" y="-0.1em" dy="1.1em"/></text></g></g><g class="edgeLabel"><g class="label" data-id="L_Portfolio_PortfolioCompose_0" transform="translate(0, 0)"><text y="-10.1"><tspan class="text-outer-tspan" x="0" y="-0.1em" dy="1.1em"/></text></g></g><g class="edgeLabel"><g class="label" data-id="L_BookTracker_TrackerCompose_0" transform="translate(0, 0)"><text y="-10.1"><tspan class="text-outer-tspan" x="0" y="-0.1em" dy="1.1em"/></text></g></g><g class="edgeLabel"><g class="label" data-id="L_OtherApps_OtherCompose_0" transform="translate(0, 0)"><text y="-10.1"><tspan class="text-outer-tspan" x="0" y="-0.1em" dy="1.1em"/></text></g></g><g class="edgeLabel"><g class="label" data-id="L_NPM_Portfolio_0" transform="translate(0, 0)"><text y="-10.1"><tspan class="text-outer-tspan" x="0" y="-0.1em" dy="1.1em"/></text></g></g><g class="edgeLabel"><g class="label" data-id="L_NPM_BookTracker_0" transform="translate(0, 0)"><text y="-10.1"><tspan class="text-outer-tspan" x="0" y="-0.1em" dy="1.1em"/></text></g></g><g class="edgeLabel"><g class="label" data-id="L_NPM_OtherApps_0" transform="translate(0, 0)"><text y="-10.1"><tspan class="text-outer-tspan" x="0" y="-0.1em" dy="1.1em"/></text></g></g><g class="edgeLabel"><g class="label" data-id="L_PortfolioCompose_Users_0" transform="translate(0, 0)"><text y="-10.1"><tspan class="text-outer-tspan" x="0" y="-0.1em" dy="1.1em"/></text></g></g><g class="edgeLabel"><g class="label" data-id="L_TrackerCompose_Users_0" transform="translate(0, 0)"><text y="-10.1"><tspan class="text-outer-tspan" x="0" y="-0.1em" dy="1.1em"/></text></g></g><g class="edgeLabel"><g class="label" data-id="L_OtherCompose_Users_0" transform="translate(0, 0)"><text y="-10.1"><tspan class="text-outer-tspan" x="0" y="-0.1em" dy="1.1em"/></text></g></g><g class="edgeLabel"><g class="label" data-id="L_Users_Ubuntu_0" transform="translate(0, 0)"><text y="-10.1"><tspan class="text-outer-tspan" x="0" y="-0.1em" dy="1.1em"/></text></g></g><g class="edgeLabel"><g class="label" data-id="L_Ubuntu_DO_0" transform="translate(0, 0)"><text y="-10.1"><tspan class="text-outer-tspan" x="0" y="-0.1em" dy="1.1em"/></text></g></g></g><g class="nodes"><g class="node default  " id="flowchart-Internet-0" transform="translate(368.4140625, 27.5)"><g class="basic label-container outer-path"><path d="M-20.0078125 -19.5 C-9.478560915605872 -19.5, 1.0506906687882562 -19.5, 20.0078125 -19.5 C20.0078125 -19.5, 20.0078125 -19.5, 20.0078125 -19.5 C20.342993538450454 -19.48925139648721, 20.678174576900908 -19.478502792974414, 21.2571817896239 -19.45993515863156 C21.58205799159274 -19.428594742148423, 21.90693419356158 -19.397254325665283, 22.501417152847864 -19.3399052695533 C22.907159351733448 -19.274308017415226, 23.31290155061903 -19.208710765277154, 23.73540575967676 -19.140403561325776 C24.11428195515257 -19.053927542106656, 24.493158150628382 -18.967451522887533, 24.95407688623539 -18.862249829261074 C25.207350273499074 -18.787079617380353, 25.460623660762757 -18.711909405499632, 26.152422751460602 -18.50658706670804 C26.5883697326631 -18.3461545477758, 27.0243167138656 -18.185722028843564, 27.325519095147794 -18.074876768247425 C27.687547626565525 -17.914617476583615, 28.049576157983257 -17.754358184919806, 28.46854541279238 -17.568892924097174 C28.764273526385274 -17.41461175665866, 29.06000163997817 -17.260330589220143, 29.576804764076783 -16.990714730406097 C29.970627328577912 -16.751977177447234, 30.36444989307904 -16.513239624488367, 30.645743073605697 -16.342718045390892 C30.872052473644846 -16.184854404699614, 31.09836187368399 -16.026990764008335, 31.670967844578712 -15.627565626425154 C32.027521082562245 -15.343223907413433, 32.38407432054578 -15.058882188401713, 32.64826620850187 -14.848196188198123 C32.98141651068627 -14.545637898428216, 33.31456681287068 -14.24307960865831, 33.57362223676799 -14.007812326905688 C33.77546174000306 -13.799396468484074, 33.97730124323813 -13.590980610062461, 34.44323344296865 -13.10986736009568 C34.72620568754378 -12.777472060040873, 35.00917793211892 -12.445076759986065, 35.253526408126575 -12.158051136245305 C35.41423799565511 -11.942712250083895, 35.57494958318364 -11.727373363922487, 36.001171464640635 -11.156274872382312 C36.1472315424843 -10.931887370191856, 36.29329162032796 -10.7074998680014, 36.68309637860425 -10.108655082055241 C36.82940401854358 -9.848871052087912, 36.9757116584829 -9.589087022120584, 37.296498974273504 -9.019496659696287 C37.505160228389435 -8.586207100888936, 37.71382148250537 -8.152917542081585, 37.83885864880834 -7.893275190886684 C38.01810439572551 -7.450534730520526, 38.19735014264267 -7.007794270154367, 38.307946729970325 -6.734618561215508 C38.42471333862375 -6.382936140183988, 38.54147994727717 -6.031253719152467, 38.70183563421488 -5.548287939305138 C38.78234132534797 -5.241284847627422, 38.862847016481055 -4.934281755949707, 39.01890678754556 -4.339158212148133 C39.06725916616514 -4.090878967215435, 39.11561154478472 -3.8425997222827357, 39.257857276581774 -3.1121979531509023 C39.309464246370055 -2.71194448642184, 39.361071216158344 -2.311691019692778, 39.41770520250937 -1.872449005199798 C39.44836229118975 -1.3949401030461879, 39.479019379870145 -0.9174312008925779, 39.49779371591342 -0.6250057626472757 C39.49779371591342 -0.19110573500575667, 39.49779371591342 0.24279429263576235, 39.49779371591342 0.625005762647271 C39.476140407215176 0.9622735238585838, 39.454487098516935 1.2995412850698966, 39.41770520250937 1.8724490051997846 C39.363399211266575 2.293635549347914, 39.30909322002379 2.714822093496043, 39.257857276581774 3.1121979531508885 C39.194309182871095 3.4385039834608753, 39.130761089160416 3.764810013770862, 39.01890678754556 4.339158212148129 C38.916946075419546 4.727978597536787, 38.81498536329354 5.116798982925446, 38.70183563421489 5.548287939305125 C38.56380648852998 5.964009734150263, 38.42577734284507 6.379731528995402, 38.307946729970325 6.734618561215495 C38.138829317701585 7.152341839182024, 37.96971190543284 7.570065117148554, 37.83885864880834 7.89327519088668 C37.63167170700936 8.323503308622657, 37.42448476521037 8.753731426358636, 37.296498974273504 9.019496659696284 C37.1157515740506 9.340431971450995, 36.93500417382769 9.661367283205706, 36.68309637860425 10.108655082055236 C36.47021515684379 10.435697805291422, 36.25733393508333 10.762740528527608, 36.00117146464064 11.156274872382301 C35.71626153629259 11.538028220540252, 35.43135160794455 11.9197815686982, 35.25352640812658 12.158051136245302 C34.929762223291426 12.53836297045669, 34.60599803845626 12.918674804668079, 34.44323344296866 13.10986736009567 C34.16889740496486 13.393141842742198, 33.89456136696105 13.676416325388725, 33.57362223676799 14.007812326905686 C33.20866294913361 14.339258695641625, 32.843703661499234 14.670705064377566, 32.64826620850189 14.848196188198111 C32.29292036054886 15.131575045790502, 31.937574512595837 15.41495390338289, 31.670967844578715 15.627565626425152 C31.273396782559335 15.904893988715985, 30.87582572053995 16.182222351006818, 30.645743073605708 16.34271804539089 C30.418588815453393 16.480420291589414, 30.191434557301076 16.618122537787944, 29.576804764076787 16.990714730406093 C29.314005340988814 17.127817021100025, 29.05120591790084 17.264919311793957, 28.468545412792388 17.56889292409717 C28.060785664587712 17.74939606886421, 27.65302591638304 17.929899213631256, 27.325519095147804 18.07487676824742 C27.031132098821814 18.18321390417895, 26.736745102495828 18.291551040110473, 26.152422751460616 18.506587066708033 C25.786334276202226 18.615240204527105, 25.420245800943835 18.723893342346177, 24.954076886235413 18.86224982926107 C24.640346966916834 18.933856636066484, 24.32661704759825 19.0054634428719, 23.735405759676766 19.140403561325773 C23.36907831713916 19.199628541323506, 23.002750874601553 19.258853521321242, 22.50141715284788 19.3399052695533 C22.188519380177986 19.370090141368134, 21.875621607508094 19.40027501318297, 21.2571817896239 19.45993515863156 C20.83150879652879 19.473585662997902, 20.405835803433686 19.487236167364244, 20.007812500000004 19.5 C20.007812500000004 19.5, 20.0078125 19.5, 20.0078125 19.5 C5.122941601979106 19.5, -9.761929296041789 19.5, -20.007812499999996 19.5 C-20.434946640299728 19.486302639486755, -20.862080780599456 19.47260527897351, -21.257181789623893 19.45993515863156 C-21.749635228697866 19.412428767626004, -22.242088667771842 19.36492237662045, -22.50141715284787 19.3399052695533 C-22.762644878834305 19.297671996667084, -23.023872604820742 19.255438723780866, -23.73540575967676 19.140403561325773 C-24.010565643675765 19.07760011338905, -24.28572552767477 19.014796665452327, -24.954076886235388 18.862249829261074 C-25.368551874198566 18.73923582845721, -25.783026862161744 18.61622182765335, -26.15242275146059 18.506587066708043 C-26.47432813590107 18.38812290957319, -26.796233520341552 18.269658752438342, -27.325519095147797 18.074876768247425 C-27.58332510723895 17.960753694238303, -27.841131119330097 17.84663062022918, -28.46854541279238 17.568892924097174 C-28.764451683777587 17.414518812061203, -29.060357954762797 17.260144700025233, -29.576804764076783 16.990714730406097 C-29.880149848325217 16.806825157681107, -30.18349493257365 16.62293558495612, -30.645743073605686 16.3427180453909 C-31.02040324055429 16.08137133170478, -31.3950634075029 15.82002461801866, -31.670967844578712 15.627565626425156 C-32.03104289526776 15.340415355500154, -32.391117945956815 15.05326508457515, -32.648266208501866 14.848196188198125 C-32.836899085965825 14.6768847998378, -33.025531963429785 14.505573411477476, -33.573622236767974 14.007812326905697 C-33.893896209402214 13.677103155178674, -34.21417018203645 13.346393983451652, -34.443233442968655 13.109867360095677 C-34.677159963337076 12.835083958474844, -34.911086483705496 12.560300556854008, -35.253526408126575 12.158051136245307 C-35.43556688771451 11.91413347782634, -35.61760736730244 11.670215819407373, -36.001171464640635 11.156274872382316 C-36.17423724335331 10.890399361610998, -36.34730302206599 10.624523850839678, -36.68309637860425 10.108655082055252 C-36.85175543509782 9.809183848669509, -37.02041449159139 9.509712615283766, -37.296498974273504 9.019496659696289 C-37.47289579594149 8.653204885215354, -37.64929261760948 8.28691311073442, -37.83885864880834 7.893275190886686 C-37.947081168149325 7.62596347577438, -38.055303687490316 7.358651760662076, -38.307946729970325 6.73461856121551 C-38.39972935507518 6.458183917975082, -38.49151198018003 6.1817492747346545, -38.70183563421488 5.5482879393051325 C-38.82847675675926 5.065350452433722, -38.955117879303636 4.582412965562311, -39.01890678754556 4.339158212148136 C-39.07837372278555 4.033808068032019, -39.13784065802553 3.728457923915901, -39.257857276581774 3.112197953150904 C-39.29996165720665 2.7856446914747517, -39.34206603783153 2.4590914297985997, -39.41770520250937 1.872449005199809 C-39.440983342901774 1.509873178811342, -39.46426148329418 1.1472973524228747, -39.49779371591342 0.6250057626472781 C-39.49779371591342 0.15389366551724076, -39.49779371591342 -0.3172184316127966, -39.49779371591342 -0.6250057626472687 C-39.47366809827938 -1.0007817311453884, -39.44954248064535 -1.376557699643508, -39.41770520250937 -1.8724490051997822 C-39.385458985888434 -2.1225442935760324, -39.3532127692675 -2.3726395819522823, -39.257857276581774 -3.112197953150895 C-39.162891255367825 -3.599828401008841, -39.067925234153876 -4.0874588488667865, -39.01890678754556 -4.339158212148126 C-38.93223122443301 -4.669689699722952, -38.84555566132047 -5.000221187297778, -38.70183563421489 -5.548287939305123 C-38.5986637807786 -5.859025123652732, -38.49549192734231 -6.169762308000342, -38.30794672997033 -6.734618561215484 C-38.12222442006878 -7.193356257368892, -37.93650211016724 -7.652093953522301, -37.83885864880834 -7.893275190886676 C-37.68244589174544 -8.21806962762467, -37.526033134682535 -8.542864064362664, -37.296498974273504 -9.019496659696282 C-37.12896370317799 -9.316972498312172, -36.96142843208247 -9.61444833692806, -36.68309637860425 -10.108655082055243 C-36.504578028655175 -10.38290720646606, -36.3260596787061 -10.657159330876878, -36.00117146464064 -11.156274872382308 C-35.78992588963752 -11.439324698018698, -35.57868031463441 -11.722374523655088, -35.25352640812659 -12.158051136245298 C-34.950402810186745 -12.514117362606786, -34.64727921224689 -12.870183588968274, -34.44323344296866 -13.109867360095668 C-34.25855484860887 -13.300563171166734, -34.07387625424907 -13.4912589822378, -33.573622236767996 -14.007812326905677 C-33.212161146337145 -14.3360817254986, -32.850700055906294 -14.664351124091521, -32.64826620850189 -14.848196188198107 C-32.29201425833049 -15.13229763819726, -31.93576230815909 -15.41639908819641, -31.67096784457872 -15.627565626425149 C-31.32641192448876 -15.867912920694522, -30.9818560043988 -16.108260214963895, -30.64574307360571 -16.342718045390885 C-30.3314956051521 -16.53321670749057, -30.017248136698488 -16.72371536959026, -29.57680476407679 -16.99071473040609 C-29.347815192421017 -17.110178443264086, -29.118825620765246 -17.229642156122082, -28.468545412792388 -17.56889292409717 C-28.174033802300592 -17.699264477685368, -27.879522191808796 -17.829636031273562, -27.325519095147804 -18.07487676824742 C-26.98933189443214 -18.1985967657912, -26.653144693716477 -18.32231676333498, -26.15242275146062 -18.506587066708033 C-25.708667012965414 -18.638291440572004, -25.264911274470208 -18.76999581443598, -24.954076886235413 -18.862249829261067 C-24.574712017975042 -18.948837384854375, -24.195347149714667 -19.035424940447687, -23.735405759676766 -19.140403561325773 C-23.468547052367136 -19.18354720760341, -23.2016883450575 -19.22669085388105, -22.501417152847882 -19.3399052695533 C-22.208502931520087 -19.3681623522039, -21.915588710192292 -19.3964194348545, -21.257181789623903 -19.45993515863156 C-20.977281949822125 -19.468911001702015, -20.697382110020342 -19.47788684477247, -20.007812500000007 -19.5 C-20.007812500000004 -19.5, -20.0078125 -19.5, -20.0078125 -19.5" stroke="none" stroke-width="0" fill="#f8fafc" style=""/><path d="M-20.0078125 -19.5 C-7.653880641306541 -19.5, 4.700051217386918 -19.5, 20.0078125 -19.5 M-20.0078125 -19.5 C-9.153779719886268 -19.5, 1.700253060227464 -19.5, 20.0078125 -19.5 M20.0078125 -19.5 C20.0078125 -19.5, 20.0078125 -19.5, 20.0078125 -19.5 M20.0078125 -19.5 C20.0078125 -19.5, 20.0078125 -19.5, 20.0078125 -19.5 M20.0078125 -19.5 C20.395193392055802 -19.487577448782936, 20.782574284111607 -19.47515489756587, 21.2571817896239 -19.45993515863156 M20.0078125 -19.5 C20.422054889867013 -19.486716052830864, 20.836297279734023 -19.473432105661725, 21.2571817896239 -19.45993515863156 M21.2571817896239 -19.45993515863156 C21.709080338799765 -19.416341049080085, 22.16097888797563 -19.372746939528607, 22.501417152847864 -19.3399052695533 M21.2571817896239 -19.45993515863156 C21.51397153261527 -19.43516296096003, 21.770761275606638 -19.410390763288504, 22.501417152847864 -19.3399052695533 M22.501417152847864 -19.3399052695533 C22.940670643268167 -19.26889017168384, 23.37992413368847 -19.19787507381438, 23.73540575967676 -19.140403561325776 M22.501417152847864 -19.3399052695533 C22.899375854101713 -19.2755663929504, 23.29733455535556 -19.2112275163475, 23.73540575967676 -19.140403561325776 M23.73540575967676 -19.140403561325776 C24.214889192116967 -19.03096459679311, 24.694372624557175 -18.92152563226044, 24.95407688623539 -18.862249829261074 M23.73540575967676 -19.140403561325776 C24.1884929887866 -19.03698935795194, 24.641580217896436 -18.933575154578104, 24.95407688623539 -18.862249829261074 M24.95407688623539 -18.862249829261074 C25.415645714334676 -18.725258623905425, 25.877214542433958 -18.58826741854978, 26.152422751460602 -18.50658706670804 M24.95407688623539 -18.862249829261074 C25.316672057524574 -18.75463348572334, 25.67926722881376 -18.647017142185604, 26.152422751460602 -18.50658706670804 M26.152422751460602 -18.50658706670804 C26.494622396274117 -18.380654434157826, 26.836822041087633 -18.254721801607612, 27.325519095147794 -18.074876768247425 M26.152422751460602 -18.50658706670804 C26.52312641415342 -18.37016469208999, 26.89383007684624 -18.233742317471936, 27.325519095147794 -18.074876768247425 M27.325519095147794 -18.074876768247425 C27.6159144757646 -17.946327347521265, 27.906309856381405 -17.817777926795106, 28.46854541279238 -17.568892924097174 M27.325519095147794 -18.074876768247425 C27.62353184660273 -17.9429553634125, 27.921544598057668 -17.81103395857758, 28.46854541279238 -17.568892924097174 M28.46854541279238 -17.568892924097174 C28.749180730630798 -17.42248565853637, 29.029816048469215 -17.27607839297557, 29.576804764076783 -16.990714730406097 M28.46854541279238 -17.568892924097174 C28.812274145360572 -17.38956986448511, 29.156002877928763 -17.210246804873048, 29.576804764076783 -16.990714730406097 M29.576804764076783 -16.990714730406097 C29.89537563529117 -16.797595196145693, 30.213946506505554 -16.60447566188529, 30.645743073605697 -16.342718045390892 M29.576804764076783 -16.990714730406097 C29.794842209541454 -16.85853914963516, 30.01287965500612 -16.72636356886422, 30.645743073605697 -16.342718045390892 M30.645743073605697 -16.342718045390892 C30.95698273237668 -16.125610732779933, 31.26822239114766 -15.908503420168973, 31.670967844578712 -15.627565626425154 M30.645743073605697 -16.342718045390892 C30.91277022581329 -16.156451463429992, 31.179797378020883 -15.97018488146909, 31.670967844578712 -15.627565626425154 M31.670967844578712 -15.627565626425154 C31.87241322198986 -15.466918298626393, 32.07385859940101 -15.306270970827631, 32.64826620850187 -14.848196188198123 M31.670967844578712 -15.627565626425154 C31.90873647372912 -15.437951471966654, 32.14650510287953 -15.248337317508154, 32.64826620850187 -14.848196188198123 M32.64826620850187 -14.848196188198123 C32.9245083163815 -14.597320414787504, 33.20075042426112 -14.346444641376886, 33.57362223676799 -14.007812326905688 M32.64826620850187 -14.848196188198123 C32.98301216181143 -14.54418877029497, 33.31775811512098 -14.240181352391813, 33.57362223676799 -14.007812326905688 M33.57362223676799 -14.007812326905688 C33.89603209401823 -13.674897678953245, 34.21844195126848 -13.341983031000803, 34.44323344296865 -13.10986736009568 M33.57362223676799 -14.007812326905688 C33.806087639193244 -13.767772713137125, 34.0385530416185 -13.527733099368564, 34.44323344296865 -13.10986736009568 M34.44323344296865 -13.10986736009568 C34.71790656090249 -12.787220686427421, 34.99257967883633 -12.46457401275916, 35.253526408126575 -12.158051136245305 M34.44323344296865 -13.10986736009568 C34.63299097423111 -12.886967366365381, 34.82274850549358 -12.66406737263508, 35.253526408126575 -12.158051136245305 M35.253526408126575 -12.158051136245305 C35.432553338146185 -11.918171359707879, 35.61158026816579 -11.678291583170452, 36.001171464640635 -11.156274872382312 M35.253526408126575 -12.158051136245305 C35.50382541506548 -11.822673269655802, 35.75412442200439 -11.487295403066298, 36.001171464640635 -11.156274872382312 M36.001171464640635 -11.156274872382312 C36.24270803621871 -10.78520983678744, 36.484244607796775 -10.414144801192569, 36.68309637860425 -10.108655082055241 M36.001171464640635 -11.156274872382312 C36.15356310624506 -10.9221603879924, 36.30595474784948 -10.68804590360249, 36.68309637860425 -10.108655082055241 M36.68309637860425 -10.108655082055241 C36.9073119370174 -9.710537653805433, 37.131527495430554 -9.312420225555623, 37.296498974273504 -9.019496659696287 M36.68309637860425 -10.108655082055241 C36.91830214400392 -9.691023428421738, 37.15350790940359 -9.273391774788237, 37.296498974273504 -9.019496659696287 M37.296498974273504 -9.019496659696287 C37.49496771857385 -8.607372065605787, 37.69343646287418 -8.195247471515287, 37.83885864880834 -7.893275190886684 M37.296498974273504 -9.019496659696287 C37.51245658652702 -8.571056057099183, 37.72841419878054 -8.12261545450208, 37.83885864880834 -7.893275190886684 M37.83885864880834 -7.893275190886684 C37.966783034691474 -7.5772994845055965, 38.09470742057461 -7.26132377812451, 38.307946729970325 -6.734618561215508 M37.83885864880834 -7.893275190886684 C37.989831364904546 -7.520369663270151, 38.14080408100076 -7.147464135653619, 38.307946729970325 -6.734618561215508 M38.307946729970325 -6.734618561215508 C38.44330120943734 -6.3269524348684705, 38.578655688904355 -5.919286308521434, 38.70183563421488 -5.548287939305138 M38.307946729970325 -6.734618561215508 C38.399938773250135 -6.4575531837983675, 38.491930816529944 -6.180487806381228, 38.70183563421488 -5.548287939305138 M38.70183563421488 -5.548287939305138 C38.78753488547607 -5.221479551955764, 38.87323413673727 -4.8946711646063905, 39.01890678754556 -4.339158212148133 M38.70183563421488 -5.548287939305138 C38.819372022404565 -5.100070750545004, 38.93690841059425 -4.651853561784869, 39.01890678754556 -4.339158212148133 M39.01890678754556 -4.339158212148133 C39.08588340559507 -3.9952474339771413, 39.15286002364458 -3.6513366558061495, 39.257857276581774 -3.1121979531509023 M39.01890678754556 -4.339158212148133 C39.06950965153799 -4.079323200466101, 39.120112515530415 -3.8194881887840686, 39.257857276581774 -3.1121979531509023 M39.257857276581774 -3.1121979531509023 C39.291285273095774 -2.852937013292849, 39.32471326960978 -2.593676073434795, 39.41770520250937 -1.872449005199798 M39.257857276581774 -3.1121979531509023 C39.305787574234095 -2.7404600294673345, 39.35371787188642 -2.368722105783767, 39.41770520250937 -1.872449005199798 M39.41770520250937 -1.872449005199798 C39.44009496325213 -1.5237104089416553, 39.4624847239949 -1.1749718126835127, 39.49779371591342 -0.6250057626472757 M39.41770520250937 -1.872449005199798 C39.44401414863901 -1.4626659330314484, 39.470323094768666 -1.052882860863099, 39.49779371591342 -0.6250057626472757 M39.49779371591342 -0.6250057626472757 C39.49779371591342 -0.294957637631009, 39.49779371591342 0.03509048738525766, 39.49779371591342 0.625005762647271 M39.49779371591342 -0.6250057626472757 C39.49779371591342 -0.30607448232258233, 39.49779371591342 0.012856798002111036, 39.49779371591342 0.625005762647271 M39.49779371591342 0.625005762647271 C39.46828140349453 1.0846838504812841, 39.438769091075635 1.5443619383152971, 39.41770520250937 1.8724490051997846 M39.49779371591342 0.625005762647271 C39.47080334035628 1.0454026481887442, 39.443812964799136 1.465799533730217, 39.41770520250937 1.8724490051997846 M39.41770520250937 1.8724490051997846 C39.36458148697422 2.2844660524262226, 39.311457771439066 2.696483099652661, 39.257857276581774 3.1121979531508885 M39.41770520250937 1.8724490051997846 C39.37124549597313 2.23278131458808, 39.32478578943689 2.593113623976376, 39.257857276581774 3.1121979531508885 M39.257857276581774 3.1121979531508885 C39.184380913525416 3.48948354821045, 39.110904550469066 3.866769143270011, 39.01890678754556 4.339158212148129 M39.257857276581774 3.1121979531508885 C39.19605163387808 3.429556865807161, 39.13424599117438 3.746915778463433, 39.01890678754556 4.339158212148129 M39.01890678754556 4.339158212148129 C38.93114712577266 4.673823837766198, 38.84338746399977 5.008489463384269, 38.70183563421489 5.548287939305125 M39.01890678754556 4.339158212148129 C38.94485319556958 4.62155665338233, 38.8707996035936 4.9039550946165305, 38.70183563421489 5.548287939305125 M38.70183563421489 5.548287939305125 C38.58536246813389 5.899086558062242, 38.46888930205288 6.249885176819359, 38.307946729970325 6.734618561215495 M38.70183563421489 5.548287939305125 C38.576906575241196 5.924554360191449, 38.451977516267505 6.300820781077773, 38.307946729970325 6.734618561215495 M38.307946729970325 6.734618561215495 C38.161593567267346 7.096113702637761, 38.015240404564366 7.457608844060028, 37.83885864880834 7.89327519088668 M38.307946729970325 6.734618561215495 C38.202843465926065 6.9942256554381865, 38.097740201881805 7.253832749660877, 37.83885864880834 7.89327519088668 M37.83885864880834 7.89327519088668 C37.71488152836981 8.150716334162714, 37.59090440793128 8.408157477438749, 37.296498974273504 9.019496659696284 M37.83885864880834 7.89327519088668 C37.69704278695879 8.187758862390625, 37.55522692510924 8.482242533894569, 37.296498974273504 9.019496659696284 M37.296498974273504 9.019496659696284 C37.145647251327155 9.287349169180874, 36.99479552838081 9.555201678665465, 36.68309637860425 10.108655082055236 M37.296498974273504 9.019496659696284 C37.17116436425056 9.24204095129751, 37.04582975422761 9.464585242898734, 36.68309637860425 10.108655082055236 M36.68309637860425 10.108655082055236 C36.47342935232806 10.430759937895246, 36.263762326051875 10.752864793735254, 36.00117146464064 11.156274872382301 M36.68309637860425 10.108655082055236 C36.485239089946724 10.412617009554396, 36.2873818012892 10.716578937053555, 36.00117146464064 11.156274872382301 M36.00117146464064 11.156274872382301 C35.71738391660023 11.53652433317897, 35.43359636855982 11.916773793975638, 35.25352640812658 12.158051136245302 M36.00117146464064 11.156274872382301 C35.84576288999088 11.364508204400575, 35.69035431534112 11.572741536418851, 35.25352640812658 12.158051136245302 M35.25352640812658 12.158051136245302 C34.954061147259566 12.509820071715763, 34.654595886392556 12.861589007186227, 34.44323344296866 13.10986736009567 M35.25352640812658 12.158051136245302 C34.9923475705106 12.464846660405904, 34.731168732894616 12.771642184566508, 34.44323344296866 13.10986736009567 M34.44323344296866 13.10986736009567 C34.14145423012951 13.421479173886247, 33.83967501729036 13.733090987676826, 33.57362223676799 14.007812326905686 M34.44323344296866 13.10986736009567 C34.254636093495186 13.304609607557394, 34.066038744021704 13.499351855019118, 33.57362223676799 14.007812326905686 M33.57362223676799 14.007812326905686 C33.36037273603269 14.201479881200886, 33.147123235297386 14.395147435496085, 32.64826620850189 14.848196188198111 M33.57362223676799 14.007812326905686 C33.26391552131538 14.28907977148909, 32.95420880586278 14.570347216072495, 32.64826620850189 14.848196188198111 M32.64826620850189 14.848196188198111 C32.361730056106786 15.076701144685957, 32.075193903711686 15.305206101173802, 31.670967844578715 15.627565626425152 M32.64826620850189 14.848196188198111 C32.277519785382026 15.143856594659539, 31.90677336226216 15.439517001120967, 31.670967844578715 15.627565626425152 M31.670967844578715 15.627565626425152 C31.395808961718892 15.819504551672104, 31.12065007885907 16.011443476919055, 30.645743073605708 16.34271804539089 M31.670967844578715 15.627565626425152 C31.449542112832958 15.782022631525555, 31.2281163810872 15.936479636625956, 30.645743073605708 16.34271804539089 M30.645743073605708 16.34271804539089 C30.230653111847033 16.594348019548374, 29.81556315008836 16.84597799370586, 29.576804764076787 16.990714730406093 M30.645743073605708 16.34271804539089 C30.269671569357318 16.57069480130773, 29.893600065108927 16.798671557224576, 29.576804764076787 16.990714730406093 M29.576804764076787 16.990714730406093 C29.32779199594983 17.12062453203764, 29.07877922782287 17.25053433366918, 28.468545412792388 17.56889292409717 M29.576804764076787 16.990714730406093 C29.231168329132338 17.17103303712591, 28.88553189418789 17.351351343845728, 28.468545412792388 17.56889292409717 M28.468545412792388 17.56889292409717 C28.235493565426673 17.67205806368855, 28.002441718060954 17.77522320327993, 27.325519095147804 18.07487676824742 M28.468545412792388 17.56889292409717 C28.062840777418984 17.748486331376565, 27.657136142045584 17.92807973865596, 27.325519095147804 18.07487676824742 M27.325519095147804 18.07487676824742 C27.040643959704216 18.179713451447547, 26.755768824260628 18.28455013464767, 26.152422751460616 18.506587066708033 M27.325519095147804 18.07487676824742 C27.076129686549738 18.16665437594193, 26.826740277951675 18.25843198363644, 26.152422751460616 18.506587066708033 M26.152422751460616 18.506587066708033 C25.82079652542544 18.605011989853693, 25.48917029939026 18.70343691299935, 24.954076886235413 18.86224982926107 M26.152422751460616 18.506587066708033 C25.682721412561758 18.645991958580577, 25.213020073662904 18.785396850453118, 24.954076886235413 18.86224982926107 M24.954076886235413 18.86224982926107 C24.488095795125883 18.968606972496023, 24.022114704016357 19.074964115730975, 23.735405759676766 19.140403561325773 M24.954076886235413 18.86224982926107 C24.64206054455992 18.93346552315159, 24.33004420288443 19.004681217042105, 23.735405759676766 19.140403561325773 M23.735405759676766 19.140403561325773 C23.454923443939602 19.18574976696131, 23.174441128202442 19.23109597259685, 22.50141715284788 19.3399052695533 M23.735405759676766 19.140403561325773 C23.386924242552787 19.19674335049985, 23.03844272542881 19.25308313967393, 22.50141715284788 19.3399052695533 M22.50141715284788 19.3399052695533 C22.247980148920618 19.36435403251957, 21.994543144993354 19.38880279548584, 21.2571817896239 19.45993515863156 M22.50141715284788 19.3399052695533 C22.167446400787306 19.37212302634599, 21.833475648726733 19.40434078313868, 21.2571817896239 19.45993515863156 M21.2571817896239 19.45993515863156 C20.947046811913264 19.469880583725626, 20.636911834202625 19.479826008819693, 20.007812500000004 19.5 M21.2571817896239 19.45993515863156 C20.92176616280009 19.470691284936887, 20.58635053597628 19.481447411242215, 20.007812500000004 19.5 M20.007812500000004 19.5 C20.007812500000004 19.5, 20.0078125 19.5, 20.0078125 19.5 M20.007812500000004 19.5 C20.007812500000004 19.5, 20.0078125 19.5, 20.0078125 19.5 M20.0078125 19.5 C11.829859696162686 19.5, 3.6519068923253712 19.5, -20.007812499999996 19.5 M20.0078125 19.5 C8.712891711716635 19.5, -2.58202907656673 19.5, -20.007812499999996 19.5 M-20.007812499999996 19.5 C-20.311919308470596 19.490247886560343, -20.616026116941192 19.480495773120683, -21.257181789623893 19.45993515863156 M-20.007812499999996 19.5 C-20.2935239392578 19.490837790246584, -20.579235378515598 19.481675580493164, -21.257181789623893 19.45993515863156 M-21.257181789623893 19.45993515863156 C-21.626076819186025 19.424348298790882, -21.994971848748154 19.38876143895021, -22.50141715284787 19.3399052695533 M-21.257181789623893 19.45993515863156 C-21.666595210799294 19.420439538282448, -22.076008631974695 19.380943917933333, -22.50141715284787 19.3399052695533 M-22.50141715284787 19.3399052695533 C-22.83806416558119 19.28547879127115, -23.174711178314507 19.231052312989004, -23.73540575967676 19.140403561325773 M-22.50141715284787 19.3399052695533 C-22.861379667853395 19.2817093216782, -23.221342182858915 19.223513373803105, -23.73540575967676 19.140403561325773 M-23.73540575967676 19.140403561325773 C-24.137656260754838 19.048592509384534, -24.539906761832917 18.956781457443295, -24.954076886235388 18.862249829261074 M-23.73540575967676 19.140403561325773 C-24.075822817354133 19.062705589339817, -24.416239875031508 18.98500761735386, -24.954076886235388 18.862249829261074 M-24.954076886235388 18.862249829261074 C-25.246052529915602 18.775592990828216, -25.538028173595816 18.688936152395357, -26.15242275146059 18.506587066708043 M-24.954076886235388 18.862249829261074 C-25.207869248487224 18.786925588328025, -25.46166161073906 18.711601347394975, -26.15242275146059 18.506587066708043 M-26.15242275146059 18.506587066708043 C-26.43639500330992 18.40208265301677, -26.720367255159246 18.297578239325496, -27.325519095147797 18.074876768247425 M-26.15242275146059 18.506587066708043 C-26.595127884917346 18.343667485274565, -27.037833018374098 18.180747903841088, -27.325519095147797 18.074876768247425 M-27.325519095147797 18.074876768247425 C-27.559643869270708 17.971236675807877, -27.793768643393616 17.867596583368332, -28.46854541279238 17.568892924097174 M-27.325519095147797 18.074876768247425 C-27.761353734723123 17.881945701882657, -28.197188374298452 17.68901463551789, -28.46854541279238 17.568892924097174 M-28.46854541279238 17.568892924097174 C-28.903909459014265 17.3417637800472, -29.33927350523615 17.114634635997223, -29.576804764076783 16.990714730406097 M-28.46854541279238 17.568892924097174 C-28.86310375359788 17.363052090425626, -29.25766209440338 17.157211256754074, -29.576804764076783 16.990714730406097 M-29.576804764076783 16.990714730406097 C-29.95959147683384 16.758667175628354, -30.3423781895909 16.526619620850607, -30.645743073605686 16.3427180453909 M-29.576804764076783 16.990714730406097 C-29.828974127508616 16.83784818038205, -30.08114349094045 16.684981630358003, -30.645743073605686 16.3427180453909 M-30.645743073605686 16.3427180453909 C-31.050757088693608 16.0601978012397, -31.455771103781533 15.7776775570885, -31.670967844578712 15.627565626425156 M-30.645743073605686 16.3427180453909 C-30.917068002891828 16.15345352018777, -31.188392932177972 15.964188994984646, -31.670967844578712 15.627565626425156 M-31.670967844578712 15.627565626425156 C-31.903407212643057 15.442201415865197, -32.1358465807074 15.256837205305239, -32.648266208501866 14.848196188198125 M-31.670967844578712 15.627565626425156 C-31.887556694650335 15.454841782164396, -32.10414554472196 15.282117937903635, -32.648266208501866 14.848196188198125 M-32.648266208501866 14.848196188198125 C-32.98262943187635 14.544536355495522, -33.316992655250836 14.240876522792918, -33.573622236767974 14.007812326905697 M-32.648266208501866 14.848196188198125 C-32.908350062072415 14.611994913827028, -33.168433915642964 14.375793639455928, -33.573622236767974 14.007812326905697 M-33.573622236767974 14.007812326905697 C-33.76992164950794 13.80511706677017, -33.966221062247904 13.602421806634647, -34.443233442968655 13.109867360095677 M-33.573622236767974 14.007812326905697 C-33.79168610810689 13.782643476371478, -34.00974997944579 13.557474625837258, -34.443233442968655 13.109867360095677 M-34.443233442968655 13.109867360095677 C-34.63844902129721 12.880556033709869, -34.83366459962577 12.651244707324059, -35.253526408126575 12.158051136245307 M-34.443233442968655 13.109867360095677 C-34.66055373192098 12.854590582817524, -34.87787402087331 12.59931380553937, -35.253526408126575 12.158051136245307 M-35.253526408126575 12.158051136245307 C-35.5443233689006 11.768409700956239, -35.83512032967462 11.378768265667173, -36.001171464640635 11.156274872382316 M-35.253526408126575 12.158051136245307 C-35.412541628473384 11.944985227565176, -35.571556848820194 11.731919318885044, -36.001171464640635 11.156274872382316 M-36.001171464640635 11.156274872382316 C-36.207115303840965 10.839889831706548, -36.41305914304129 10.523504791030781, -36.68309637860425 10.108655082055252 M-36.001171464640635 11.156274872382316 C-36.14616265416657 10.933529469684602, -36.2911538436925 10.71078406698689, -36.68309637860425 10.108655082055252 M-36.68309637860425 10.108655082055252 C-36.839634440520065 9.830705901926109, -36.996172502435876 9.552756721796964, -37.296498974273504 9.019496659696289 M-36.68309637860425 10.108655082055252 C-36.814511056012606 9.875315015137648, -36.94592573342096 9.641974948220044, -37.296498974273504 9.019496659696289 M-37.296498974273504 9.019496659696289 C-37.47934689416706 8.639809041718575, -37.66219481406061 8.26012142374086, -37.83885864880834 7.893275190886686 M-37.296498974273504 9.019496659696289 C-37.47357685831805 8.651790644618043, -37.65065474236258 8.284084629539798, -37.83885864880834 7.893275190886686 M-37.83885864880834 7.893275190886686 C-38.011401380919985 7.467091306684143, -38.18394411303163 7.0409074224816, -38.307946729970325 6.73461856121551 M-37.83885864880834 7.893275190886686 C-38.01226915879725 7.464947878549947, -38.185679668786165 7.036620566213207, -38.307946729970325 6.73461856121551 M-38.307946729970325 6.73461856121551 C-38.45674268792534 6.286468843271376, -38.60553864588035 5.838319125327242, -38.70183563421488 5.5482879393051325 M-38.307946729970325 6.73461856121551 C-38.39456055038682 6.473751534159221, -38.481174370803316 6.212884507102932, -38.70183563421488 5.5482879393051325 M-38.70183563421488 5.5482879393051325 C-38.8050889401341 5.1545383335693105, -38.90834224605331 4.760788727833489, -39.01890678754556 4.339158212148136 M-38.70183563421488 5.5482879393051325 C-38.808032512001795 5.143313218285643, -38.914229389788716 4.738338497266153, -39.01890678754556 4.339158212148136 M-39.01890678754556 4.339158212148136 C-39.07068607152477 4.073282532470449, -39.12246535550398 3.807406852792762, -39.257857276581774 3.112197953150904 M-39.01890678754556 4.339158212148136 C-39.088614601531226 3.9812233200834535, -39.158322415516885 3.623288428018771, -39.257857276581774 3.112197953150904 M-39.257857276581774 3.112197953150904 C-39.301937389668055 2.7703213006566174, -39.346017502754336 2.428444648162331, -39.41770520250937 1.872449005199809 M-39.257857276581774 3.112197953150904 C-39.3020566748322 2.769396148479013, -39.34625607308263 2.426594343807122, -39.41770520250937 1.872449005199809 M-39.41770520250937 1.872449005199809 C-39.44623679178622 1.4280464719285282, -39.474768381063065 0.9836439386572473, -39.49779371591342 0.6250057626472781 M-39.41770520250937 1.872449005199809 C-39.438066907798074 1.5552990096554984, -39.45842861308678 1.2381490141111877, -39.49779371591342 0.6250057626472781 M-39.49779371591342 0.6250057626472781 C-39.49779371591342 0.2251916226600184, -39.49779371591342 -0.17462251732724132, -39.49779371591342 -0.6250057626472687 M-39.49779371591342 0.6250057626472781 C-39.49779371591342 0.2429791954412137, -39.49779371591342 -0.1390473717648507, -39.49779371591342 -0.6250057626472687 M-39.49779371591342 -0.6250057626472687 C-39.46677866597954 -1.1080902002650954, -39.43576361604566 -1.5911746378829223, -39.41770520250937 -1.8724490051997822 M-39.49779371591342 -0.6250057626472687 C-39.4677871409475 -1.092382388612817, -39.437780565981576 -1.5597590145783653, -39.41770520250937 -1.8724490051997822 M-39.41770520250937 -1.8724490051997822 C-39.37947207142498 -2.168977619904618, -39.34123894034059 -2.465506234609453, -39.257857276581774 -3.112197953150895 M-39.41770520250937 -1.8724490051997822 C-39.36841908038108 -2.2547024357811205, -39.319132958252794 -2.6369558663624595, -39.257857276581774 -3.112197953150895 M-39.257857276581774 -3.112197953150895 C-39.189576152425644 -3.462807094471942, -39.12129502826951 -3.8134162357929893, -39.01890678754556 -4.339158212148126 M-39.257857276581774 -3.112197953150895 C-39.19784063933555 -3.420370700889488, -39.137824002089324 -3.728543448628081, -39.01890678754556 -4.339158212148126 M-39.01890678754556 -4.339158212148126 C-38.94617658518738 -4.616509995208957, -38.87344638282921 -4.893861778269787, -38.70183563421489 -5.548287939305123 M-39.01890678754556 -4.339158212148126 C-38.936604886903375 -4.653011029166161, -38.85430298626119 -4.9668638461841965, -38.70183563421489 -5.548287939305123 M-38.70183563421489 -5.548287939305123 C-38.582551105499554 -5.9075539343870345, -38.46326657678422 -6.266819929468946, -38.30794672997033 -6.734618561215484 M-38.70183563421489 -5.548287939305123 C-38.589376263698995 -5.886997645331602, -38.4769168931831 -6.225707351358082, -38.30794672997033 -6.734618561215484 M-38.30794672997033 -6.734618561215484 C-38.18620132936969 -7.0353320544862745, -38.064455928769036 -7.336045547757065, -37.83885864880834 -7.893275190886676 M-38.30794672997033 -6.734618561215484 C-38.187537468673526 -7.032031764573289, -38.067128207376726 -7.329444967931094, -37.83885864880834 -7.893275190886676 M-37.83885864880834 -7.893275190886676 C-37.669261320898485 -8.24544767109299, -37.49966399298863 -8.597620151299303, -37.296498974273504 -9.019496659696282 M-37.83885864880834 -7.893275190886676 C-37.67171337027647 -8.240355938094151, -37.5045680917446 -8.587436685301626, -37.296498974273504 -9.019496659696282 M-37.296498974273504 -9.019496659696282 C-37.07517106758018 -9.412486769911101, -36.853843160886846 -9.80547688012592, -36.68309637860425 -10.108655082055243 M-37.296498974273504 -9.019496659696282 C-37.120430625241404 -9.33212384225641, -36.944362276209304 -9.64475102481654, -36.68309637860425 -10.108655082055243 M-36.68309637860425 -10.108655082055243 C-36.442786399249876 -10.477835742608379, -36.20247641989551 -10.847016403161517, -36.00117146464064 -11.156274872382308 M-36.68309637860425 -10.108655082055243 C-36.43479642978073 -10.490110481320208, -36.18649648095721 -10.871565880585175, -36.00117146464064 -11.156274872382308 M-36.00117146464064 -11.156274872382308 C-35.752084212463245 -11.490029097984522, -35.50299696028585 -11.823783323586735, -35.25352640812659 -12.158051136245298 M-36.00117146464064 -11.156274872382308 C-35.72287827694709 -11.529162390860709, -35.444585089253536 -11.902049909339109, -35.25352640812659 -12.158051136245298 M-35.25352640812659 -12.158051136245298 C-34.97783476627068 -12.48189422606807, -34.702143124414775 -12.80573731589084, -34.44323344296866 -13.109867360095668 M-35.25352640812659 -12.158051136245298 C-34.997509790574206 -12.45878282298055, -34.74149317302182 -12.759514509715803, -34.44323344296866 -13.109867360095668 M-34.44323344296866 -13.109867360095668 C-34.11610358689469 -13.447655794352722, -33.78897373082071 -13.785444228609773, -33.573622236767996 -14.007812326905677 M-34.44323344296866 -13.109867360095668 C-34.21809788871282 -13.342338303837588, -33.992962334456976 -13.574809247579505, -33.573622236767996 -14.007812326905677 M-33.573622236767996 -14.007812326905677 C-33.33301923936083 -14.226321603144399, -33.092416241953664 -14.444830879383122, -32.64826620850189 -14.848196188198107 M-33.573622236767996 -14.007812326905677 C-33.25818442424884 -14.294284602208405, -32.94274661172968 -14.580756877511135, -32.64826620850189 -14.848196188198107 M-32.64826620850189 -14.848196188198107 C-32.42237849734242 -15.028335626723335, -32.19649078618296 -15.208475065248564, -31.67096784457872 -15.627565626425149 M-32.64826620850189 -14.848196188198107 C-32.378998459897716 -15.06293005219421, -32.10973071129355 -15.277663916190313, -31.67096784457872 -15.627565626425149 M-31.67096784457872 -15.627565626425149 C-31.33852718141752 -15.85946184192204, -31.006086518256314 -16.09135805741893, -30.64574307360571 -16.342718045390885 M-31.67096784457872 -15.627565626425149 C-31.314515860762054 -15.876211099777972, -30.95806387694539 -16.1248565731308, -30.64574307360571 -16.342718045390885 M-30.64574307360571 -16.342718045390885 C-30.389654360992584 -16.497960527921286, -30.133565648379456 -16.653203010451683, -29.57680476407679 -16.99071473040609 M-30.64574307360571 -16.342718045390885 C-30.352599469940035 -16.52042342063605, -30.05945586627436 -16.698128795881214, -29.57680476407679 -16.99071473040609 M-29.57680476407679 -16.99071473040609 C-29.300740235238855 -17.134737418273073, -29.02467570640092 -17.27876010614005, -28.468545412792388 -17.56889292409717 M-29.57680476407679 -16.99071473040609 C-29.21128770504954 -17.181404745975758, -28.845770646022284 -17.372094761545426, -28.468545412792388 -17.56889292409717 M-28.468545412792388 -17.56889292409717 C-28.21961003278554 -17.679089232420523, -27.970674652778687 -17.789285540743876, -27.325519095147804 -18.07487676824742 M-28.468545412792388 -17.56889292409717 C-28.236452979700964 -17.671633359449334, -28.004360546609536 -17.774373794801498, -27.325519095147804 -18.07487676824742 M-27.325519095147804 -18.07487676824742 C-26.967033753571975 -18.206802687749498, -26.608548411996146 -18.338728607251575, -26.15242275146062 -18.506587066708033 M-27.325519095147804 -18.07487676824742 C-27.058303030314658 -18.173214750224243, -26.79108696548151 -18.27155273220107, -26.15242275146062 -18.506587066708033 M-26.15242275146062 -18.506587066708033 C-25.870456452707266 -18.590273184106724, -25.58849015395391 -18.673959301505413, -24.954076886235413 -18.862249829261067 M-26.15242275146062 -18.506587066708033 C-25.72354971610448 -18.633874332401234, -25.29467668074834 -18.761161598094436, -24.954076886235413 -18.862249829261067 M-24.954076886235413 -18.862249829261067 C-24.68825985495083 -18.922920832033537, -24.422442823666245 -18.983591834806006, -23.735405759676766 -19.140403561325773 M-24.954076886235413 -18.862249829261067 C-24.656244575231888 -18.93022811071016, -24.358412264228367 -18.99820639215925, -23.735405759676766 -19.140403561325773 M-23.735405759676766 -19.140403561325773 C-23.33671898167747 -19.20486014773056, -22.938032203678176 -19.269316734135344, -22.501417152847882 -19.3399052695533 M-23.735405759676766 -19.140403561325773 C-23.388127383620944 -19.19654883598245, -23.04084900756512 -19.252694110639126, -22.501417152847882 -19.3399052695533 M-22.501417152847882 -19.3399052695533 C-22.15164496202336 -19.373647372139537, -21.80187277119884 -19.407389474725772, -21.257181789623903 -19.45993515863156 M-22.501417152847882 -19.3399052695533 C-22.20078019504061 -19.368907355304124, -21.900143237233337 -19.397909441054953, -21.257181789623903 -19.45993515863156 M-21.257181789623903 -19.45993515863156 C-20.881097417617358 -19.471995452437987, -20.50501304561081 -19.484055746244415, -20.007812500000007 -19.5 M-21.257181789623903 -19.45993515863156 C-20.97527419376119 -19.468975386531028, -20.693366597898482 -19.478015614430497, -20.007812500000007 -19.5 M-20.007812500000007 -19.5 C-20.007812500000004 -19.5, -20.0078125 -19.5, -20.0078125 -19.5 M-20.007812500000007 -19.5 C-20.007812500000004 -19.5, -20.007812500000004 -19.5, -20.0078125 -19.5" stroke="#cbd5e1" stroke-width="1.3" fill="none" stroke-dasharray="0 0" style=""/></g><g class="label" style="" transform="translate(-27.1328125, -12)"><rect/><foreignObject width="54.265625" height="24"><div xmlns="http://www.w3.org/1999/xhtml" style="display: table-cell; white-space: nowrap; line-height: 1.5; max-width: 200px; text-align: center;"><span class="nodeLabel "><p>Internet</p></span></div></foreignObject></g></g><g class="node default  " id="flowchart-HTTPS-1" transform="translate(368.4140625, 124)"><rect class="basic label-container" style="" x="-77.125" y="-27" width="154.25" height="54"/><g class="label" style="" transform="translate(-47.125, -12)"><rect/><foreignObject width="94.25" height="24"><div xmlns="http://www.w3.org/1999/xhtml" style="display: table-cell; white-space: nowrap; line-height: 1.5; max-width: 200px; text-align: center;"><span class="nodeLabel "><p>HTTPS (443)</p></span></div></foreignObject></g></g><g class="node default  " id="flowchart-NPM-2" transform="translate(368.4140625, 228)"><rect class="basic label-container" style="" x="-106.921875" y="-27" width="213.84375" height="54"/><g class="label" style="" transform="translate(-76.921875, -12)"><rect/><foreignObject width="153.84375" height="24"><div xmlns="http://www.w3.org/1999/xhtml" style="display: table-cell; white-space: nowrap; line-height: 1.5; max-width: 200px; text-align: center;"><span class="nodeLabel "><p>Nginx Proxy Manager</p></span></div></foreignObject></g></g><g class="node default  " id="flowchart-Portfolio-6" transform="translate(134.8046875, 357)"><rect class="basic label-container" style="" x="-59.3515625" y="-27" width="118.703125" height="54"/><g class="label" style="" transform="translate(-29.3515625, -12)"><rect/><foreignObject width="58.703125" height="24"><div xmlns="http://www.w3.org/1999/xhtml" style="display: table-cell; white-space: nowrap; line-height: 1.5; max-width: 200px; text-align: center;"><span class="nodeLabel "><p>Portfolio</p></span></div></foreignObject></g></g><g class="node default  " id="flowchart-BookTracker-7" transform="translate(368.4140625, 357)"><rect class="basic label-container" style="" x="-77.28125" y="-27" width="154.5625" height="54"/><g class="label" style="" transform="translate(-47.28125, -12)"><rect/><foreignObject width="94.5625" height="24"><div xmlns="http://www.w3.org/1999/xhtml" style="display: table-cell; white-space: nowrap; line-height: 1.5; max-width: 200px; text-align: center;"><span class="nodeLabel "><p>Book Tracker</p></span></div></foreignObject></g></g><g class="node default  " id="flowchart-OtherApps-8" transform="translate(602.0234375, 357)"><rect class="basic label-container" style="" x="-70.46875" y="-27" width="140.9375" height="54"/><g class="label" style="" transform="translate(-40.46875, -12)"><rect/><foreignObject width="80.9375" height="24"><div xmlns="http://www.w3.org/1999/xhtml" style="display: table-cell; white-space: nowrap; line-height: 1.5; max-width: 200px; text-align: center;"><span class="nodeLabel "><p>Other Apps</p></span></div></foreignObject></g></g><g class="node default  " id="flowchart-PortfolioCompose-10" transform="translate(134.8046875, 461)"><rect class="basic label-container" style="" x="-91.8046875" y="-27" width="183.609375" height="54"/><g class="label" style="" transform="translate(-61.8046875, -12)"><rect/><foreignObject width="123.609375" height="24"><div xmlns="http://www.w3.org/1999/xhtml" style="display: table-cell; white-space: nowrap; line-height: 1.5; max-width: 200px; text-align: center;"><span class="nodeLabel "><p>Docker Compose</p></span></div></foreignObject></g></g><g class="node default  " id="flowchart-TrackerCompose-12" transform="translate(368.4140625, 461)"><rect class="basic label-container" style="" x="-91.8046875" y="-27" width="183.609375" height="54"/><g class="label" style="" transform="translate(-61.8046875, -12)"><rect/><foreignObject width="123.609375" height="24"><div xmlns="http://www.w3.org/1999/xhtml" style="display: table-cell; white-space: nowrap; line-height: 1.5; max-width: 200px; text-align: center;"><span class="nodeLabel "><p>Docker Compose</p></span></div></foreignObject></g></g><g class="node default  " id="flowchart-OtherCompose-14" transform="translate(602.0234375, 461)"><rect class="basic label-container" style="" x="-91.8046875" y="-27" width="183.609375" height="54"/><g class="label" style="" transform="translate(-61.8046875, -12)"><rect/><foreignObject width="123.609375" height="24"><div xmlns="http://www.w3.org/1999/xhtml" style="display: table-cell; white-space: nowrap; line-height: 1.5; max-width: 200px; text-align: center;"><span class="nodeLabel "><p>Docker Compose</p></span></div></foreignObject></g></g><g class="node default  " id="flowchart-Users-22" transform="translate(368.4140625, 602)"><rect class="basic label-container" style="" x="-110.484375" y="-39" width="220.96875" height="78"/><g class="label" style="" transform="translate(-80.484375, -24)"><rect/><foreignObject width="160.96875" height="48"><div xmlns="http://www.w3.org/1999/xhtml" style="display: table-cell; white-space: nowrap; line-height: 1.5; max-width: 200px; text-align: center;"><span class="nodeLabel "><p>Dedicated Linux Users<br />(portfolio, tracker, ...)</p></span></div></foreignObject></g></g><g class="node default  " id="flowchart-Ubuntu-28" transform="translate(368.4140625, 718)"><rect class="basic label-container" style="" x="-96.2734375" y="-27" width="192.546875" height="54"/><g class="label" style="" transform="translate(-66.2734375, -12)"><rect/><foreignObject width="132.546875" height="24"><div xmlns="http://www.w3.org/1999/xhtml" style="display: table-cell; white-space: nowrap; line-height: 1.5; max-width: 200px; text-align: center;"><span class="nodeLabel "><p>Ubuntu 22.04 VPS</p></span></div></foreignObject></g></g><g class="node default  " id="flowchart-DO-30" transform="translate(368.4140625, 822)"><rect class="basic label-container" style="" x="-75.8046875" y="-27" width="151.609375" height="54"/><g class="label" style="" transform="translate(-45.8046875, -12)"><rect/><foreignObject width="91.609375" height="24"><div xmlns="http://www.w3.org/1999/xhtml" style="display: table-cell; white-space: nowrap; line-height: 1.5; max-width: 200px; text-align: center;"><span class="nodeLabel "><p>DigitalOcean</p></span></div></foreignObject></g></g></g></g></g><g opacity="0.95"><rect x="495.828125" y="833" width="264" height="47" rx="9" ry="9" fill="rgba(255,255,255,0.32)" stroke="rgba(255,255,255,0.22)" stroke-width="1.4447568911376738"/><text x="517.828125" y="856.5" text-anchor="start" dominant-baseline="central" fill="#e5e7eb" font-size="25" font-weight="500" font-family="-apple-system, BlinkMacSystemFont, 'Segoe UI', sans-serif">MermaidEditor.io</text></g></svg>